<svg width="24" height="24" viewBox="0 0 24 24" fill="none" xmlns="http://www.w3.org/2000/svg">
    <path d="M0 12C0 5.37258 5.37258 0 12 0C18.6274 0 24 5.37258 24 12C24 18.6274 18.6274 24 12 24C5.37258 24 0 18.6274 0 12Z" fill="#D85050" />
    <path d="M9.52858 14.946C10.3606 14.2527 11.0236 13.6763 11.5176 13.217C12.0116 12.749 12.4232 12.2637 12.7526 11.761C13.0819 11.2583 13.2466 10.7643 13.2466 10.279C13.2466 9.837 13.1426 9.49033 12.9346 9.239C12.7266 8.98767 12.4059 8.862 11.9726 8.862C11.5392 8.862 11.2056 9.00933 10.9716 9.304C10.7376 9.59 10.6162 9.98433 10.6076 10.487H8.83958C8.87424 9.447 9.18191 8.65833 9.76258 8.121C10.3519 7.58367 11.0972 7.315 11.9986 7.315C12.9866 7.315 13.7449 7.57933 14.2736 8.108C14.8022 8.628 15.0666 9.317 15.0666 10.175C15.0666 10.851 14.8846 11.4967 14.5206 12.112C14.1566 12.7273 13.7406 13.2647 13.2726 13.724C12.8046 14.1747 12.1936 14.7207 11.4396 15.362H15.2746V16.87H8.85258V15.518L9.52858 14.946Z" fill="white" />
</svg>
    